<?xml version="1.0"?>
<svg xmlns="http://www.w3.org/2000/svg" width="512" height="512" viewBox="0 0 512 512"><g><path d="M476,88H36A28.031,28.031,0,0,0,8,116V396a28.031,28.031,0,0,0,28,28H476a28.031,28.031,0,0,0,28-28V116A28.031,28.031,0,0,0,476,88ZM148.94,408l24-48H339.06l24,48ZM488,396a12.01,12.01,0,0,1-12,12H380.94l-29.78-59.58A8.011,8.011,0,0,0,344,344H168a8.011,8.011,0,0,0-7.16,4.42L131.06,408H36a12.01,12.01,0,0,1-12-12V116a12.01,12.01,0,0,1,12-12H476a12.01,12.01,0,0,1,12,12Z"/><path d="M461.66,170.34l-40-40A8.008,8.008,0,0,0,416,128H96a8.008,8.008,0,0,0-5.66,2.34l-40,40A8.008,8.008,0,0,0,48,176V312a8,8,0,0,0,8,8H456a8,8,0,0,0,8-8V176A8.008,8.008,0,0,0,461.66,170.34ZM448,304H64V179.31L99.31,144H412.69L448,179.31Z"/><circle cx="48" cy="128" r="8"/><circle cx="464" cy="128" r="8"/><circle cx="48" cy="384" r="8"/><circle cx="464" cy="384" r="8"/><path d="M128,184a48,48,0,1,0,48,48A48.054,48.054,0,0,0,128,184Zm8,78.987V256a8,8,0,0,0-16,0v6.987A32.118,32.118,0,0,1,97.013,240H104a8,8,0,0,0,0-16H97.013A32.118,32.118,0,0,1,120,201.013V208a8,8,0,0,0,16,0v-6.987A32.118,32.118,0,0,1,158.987,224H152a8,8,0,0,0,0,16h6.987A32.118,32.118,0,0,1,136,262.987Z"/><path d="M336,232a48,48,0,1,0,48-48A48.054,48.054,0,0,0,336,232Zm78.987-8H408a8,8,0,0,0,0,16h6.987A32.118,32.118,0,0,1,392,262.987V256a8,8,0,0,0-16,0v6.987A32.118,32.118,0,0,1,353.013,240H360a8,8,0,0,0,0-16h-6.987A32.118,32.118,0,0,1,376,201.013V208a8,8,0,0,0,16,0v-6.987A32.118,32.118,0,0,1,414.987,224Z"/><path d="M312,192H200a8,8,0,0,0-8,8v64a8,8,0,0,0,8,8H312a8,8,0,0,0,8-8V200A8,8,0,0,0,312,192Zm-8,64H208V208h96Z"/></g></svg>
